<svg id="svg" version="1.1" xmlns="http://www.w3.org/2000/svg" xmlns:xlink="http://www.w3.org/1999/xlink" width="400" height="400" viewBox="0, 0, 400,400"><g id="svgg"><path id="path0" d="M195.400 72.260 C 177.882 75.915,166.483 85.333,160.573 101.033 C 158.208 107.315,158.001 109.752,157.994 131.263 C 157.988 151.588,157.899 152.756,156.461 151.455 C 155.136 150.256,106.012 150.687,101.400 151.938 C 83.162 156.886,72.096 168.071,67.561 186.138 C 66.912 188.723,66.904 200.056,67.549 202.620 C 67.823 203.709,68.226 205.320,68.445 206.200 C 69.030 208.553,71.223 214.038,72.067 215.262 C 72.470 215.846,72.800 216.441,72.800 216.584 C 72.800 217.343,76.543 222.218,79.336 225.097 C 84.141 230.048,90.373 233.923,97.400 236.330 C 98.060 236.556,99.500 236.929,100.600 237.159 C 101.700 237.389,103.445 237.762,104.477 237.989 C 105.635 238.242,114.690 238.400,128.117 238.400 C 151.251 238.400,151.645 238.430,153.736 240.354 C 156.064 242.498,156.000 241.836,156.000 263.612 C 156.000 275.615,156.177 285.216,156.441 287.532 C 160.453 322.723,199.103 339.588,227.000 318.319 C 233.289 313.524,238.589 306.096,241.138 298.503 C 243.570 291.257,243.684 290.030,243.956 268.000 L 244.200 248.200 271.600 247.988 L 299.000 247.776 302.429 246.711 C 346.083 233.141,343.983 172.645,299.499 162.315 C 296.019 161.507,294.451 161.443,273.000 161.228 C 242.009 160.918,245.201 163.783,245.199 136.274 C 245.196 105.334,244.078 99.699,235.779 88.800 C 226.670 76.839,208.712 69.482,195.400 72.260 M207.600 88.076 C 215.960 89.653,224.200 96.744,227.499 105.200 C 229.393 110.056,229.341 109.137,229.576 141.671 C 229.798 172.459,229.808 172.753,230.642 173.871 C 232.790 176.751,230.766 176.576,264.600 176.814 L 295.000 177.028 298.233 178.073 C 325.174 186.780,325.685 222.309,299.000 231.471 L 295.800 232.569 270.148 232.704 C 241.286 232.855,243.200 233.058,243.200 229.838 C 243.200 228.197,242.859 225.884,241.925 221.200 C 235.295 187.928,211.366 162.713,177.800 153.631 L 173.800 152.548 173.684 132.374 C 173.544 108.260,173.626 107.652,177.926 100.800 C 184.435 90.428,195.322 85.760,207.600 88.076 M157.934 167.500 C 158.133 167.885,158.423 169.529,158.578 171.153 C 161.902 206.058,189.969 237.626,224.800 245.638 C 228.215 246.423,228.003 245.090,227.974 265.576 C 227.941 287.811,227.642 290.531,224.556 296.610 C 215.299 314.843,188.955 316.753,177.612 300.012 C 172.104 291.884,172.018 291.207,172.008 256.149 C 171.999 224.239,172.128 225.690,169.126 223.703 L 167.459 222.600 137.030 222.370 C 116.815 222.216,105.984 221.990,104.764 221.694 C 74.153 214.266,76.552 171.217,107.800 167.217 C 113.427 166.496,157.544 166.746,157.934 167.500 M177.172 170.057 C 183.468 172.070,192.319 176.334,196.299 179.271 C 202.457 183.814,207.599 188.475,210.669 192.295 C 211.511 193.343,212.291 194.290,212.403 194.400 C 217.058 198.990,224.124 214.075,225.986 223.400 C 226.249 224.720,226.657 226.575,226.891 227.522 C 227.457 229.815,227.036 230.216,224.749 229.561 C 200.182 222.526,179.727 200.173,175.004 175.200 C 174.650 173.330,174.283 171.422,174.188 170.959 C 173.888 169.504,174.687 169.262,177.172 170.057 " stroke="none" fill="#eed2f6" fill-rule="evenodd"></path><path id="path1" d="M0.000 200.000 L 0.000 400.000 200.000 400.000 L 400.000 400.000 400.000 200.000 L 400.000 0.000 200.000 0.000 L 0.000 0.000 0.000 200.000 M207.954 71.630 C 219.206 73.460,228.578 78.811,235.457 87.331 C 239.489 92.324,243.152 99.328,244.176 104.000 C 244.344 104.770,244.671 106.120,244.902 107.000 C 245.157 107.974,245.415 117.760,245.561 132.000 C 245.829 158.212,245.737 157.425,248.743 159.294 C 250.199 160.199,250.214 160.200,272.800 160.443 C 296.061 160.694,295.597 160.664,302.400 162.351 C 311.889 164.704,322.300 172.375,327.912 181.148 C 342.680 204.234,333.387 234.282,308.046 245.378 C 304.447 246.954,303.050 247.360,297.680 248.392 C 296.378 248.643,285.699 248.800,269.980 248.800 L 244.400 248.800 244.400 266.558 C 244.400 290.317,243.884 294.537,239.973 302.766 C 224.110 336.145,176.849 336.667,160.582 303.643 C 156.016 294.373,155.926 293.694,155.643 266.529 C 155.373 240.694,155.564 242.403,152.719 240.279 C 150.949 238.958,148.788 238.835,126.883 238.817 C 109.273 238.803,105.046 238.693,102.576 238.182 C 55.690 228.498,53.937 164.638,100.204 151.716 L 104.200 150.600 130.675 150.600 L 157.149 150.600 157.306 129.800 C 157.486 105.812,157.593 105.034,161.908 96.125 C 167.146 85.313,179.661 74.817,189.800 72.733 C 190.680 72.552,192.480 72.157,193.800 71.854 C 196.766 71.174,204.406 71.053,207.954 71.630 M196.600 88.603 C 186.348 90.494,177.705 98.695,175.030 109.072 C 174.480 111.204,174.407 114.341,174.496 131.864 L 174.600 152.184 178.705 153.287 C 213.748 162.706,238.960 191.659,243.590 227.800 C 243.843 229.780,244.190 231.541,244.360 231.714 C 244.529 231.887,256.173 231.975,270.234 231.909 L 295.800 231.790 299.062 230.679 C 324.595 221.988,324.078 187.011,298.297 178.863 L 295.000 177.821 264.600 177.611 L 234.200 177.400 232.428 176.400 C 231.241 175.730,230.350 174.818,229.728 173.637 L 228.800 171.874 228.800 142.637 C 228.800 109.449,228.805 109.524,225.855 103.387 C 220.604 92.462,208.591 86.391,196.600 88.603 M108.800 167.611 C 80.829 170.937,73.757 206.310,98.567 218.794 C 104.457 221.757,103.763 221.701,137.630 221.965 L 167.860 222.200 169.467 223.264 C 172.761 225.445,172.575 223.504,172.800 258.000 L 173.000 288.600 174.047 291.667 C 180.985 311.991,204.526 317.686,219.401 302.638 C 226.600 295.355,227.000 293.510,227.000 267.615 L 227.000 247.030 224.200 246.277 C 186.907 236.260,160.539 205.552,157.499 168.600 L 157.400 167.400 134.400 167.351 C 121.750 167.324,110.230 167.441,108.800 167.611 M175.057 171.500 C 178.448 196.064,196.132 217.939,220.000 227.092 C 227.321 229.900,226.878 230.193,225.426 223.493 C 220.098 198.903,201.981 178.775,178.182 171.007 C 176.486 170.453,175.042 170.000,174.974 170.000 C 174.906 170.000,174.943 170.675,175.057 171.500 " stroke="none" fill="#1c1c1c" fill-rule="evenodd"></path><path id="path2" d="M108.505 150.687 C 109.114 150.779,110.014 150.777,110.505 150.682 C 110.997 150.587,110.500 150.511,109.400 150.514 C 108.300 150.517,107.897 150.595,108.505 150.687 M79.385 163.700 L 77.400 165.800 79.500 163.815 C 81.451 161.971,81.783 161.600,81.485 161.600 C 81.422 161.600,80.477 162.545,79.385 163.700 M218.783 176.900 C 219.764 177.945,220.619 178.800,220.683 178.800 C 220.984 178.800,220.666 178.441,218.900 176.783 L 217.000 175.000 218.783 176.900 M208.200 190.000 C 209.059 190.880,209.852 191.600,209.962 191.600 C 210.072 191.600,209.459 190.880,208.600 190.000 C 207.741 189.120,206.948 188.400,206.838 188.400 C 206.728 188.400,207.341 189.120,208.200 190.000 M66.540 194.400 C 66.540 196.270,66.609 197.035,66.693 196.100 C 66.777 195.165,66.777 193.635,66.693 192.700 C 66.609 191.765,66.540 192.530,66.540 194.400 M90.400 213.400 C 91.817 214.830,93.067 216.000,93.177 216.000 C 93.287 216.000,92.217 214.830,90.800 213.400 C 89.383 211.970,88.133 210.800,88.023 210.800 C 87.913 210.800,88.983 211.970,90.400 213.400 M123.500 222.300 C 131.255 222.361,143.945 222.361,151.700 222.300 C 159.455 222.239,153.110 222.189,137.600 222.189 C 122.090 222.189,115.745 222.239,123.500 222.300 M119.328 238.700 C 125.008 238.762,134.188 238.762,139.728 238.700 C 145.268 238.637,140.620 238.586,129.400 238.586 C 118.180 238.586,113.648 238.637,119.328 238.700 M227.386 266.600 C 227.386 277.600,227.437 282.042,227.500 276.472 C 227.563 270.902,227.562 261.902,227.500 256.472 C 227.437 251.042,227.385 255.600,227.386 266.600 M230.788 315.100 L 228.200 317.800 230.900 315.212 C 232.385 313.788,233.600 312.573,233.600 312.512 C 233.600 312.217,233.193 312.592,230.788 315.100 M168.783 314.900 C 170.441 316.666,170.800 316.984,170.800 316.683 C 170.800 316.619,169.945 315.764,168.900 314.783 L 167.000 313.000 168.783 314.900 " stroke="none" fill="#7c7c7d" fill-rule="evenodd"></path><path id="path3" d="M195.200 71.611 C 194.591 71.812,195.296 71.853,197.000 71.716 C 198.540 71.592,199.875 71.425,199.967 71.345 C 200.296 71.058,196.178 71.287,195.200 71.611 M204.800 71.620 C 207.243 72.055,209.130 72.040,207.400 71.600 C 206.740 71.432,205.480 71.296,204.600 71.297 L 203.000 71.300 204.800 71.620 M191.400 72.400 C 190.896 72.617,190.822 72.744,191.200 72.744 C 191.530 72.744,192.160 72.589,192.600 72.400 C 193.104 72.183,193.178 72.056,192.800 72.056 C 192.470 72.056,191.840 72.211,191.400 72.400 M210.033 72.144 C 210.125 72.223,210.740 72.408,211.400 72.556 C 212.276 72.752,212.438 72.715,212.000 72.418 C 211.460 72.053,209.632 71.798,210.033 72.144 M188.000 73.200 C 187.467 73.545,187.467 73.588,188.000 73.588 C 188.330 73.588,188.870 73.413,189.200 73.200 C 189.733 72.855,189.733 72.812,189.200 72.812 C 188.870 72.812,188.330 72.987,188.000 73.200 M213.600 73.200 C 213.930 73.413,214.470 73.588,214.800 73.588 C 215.333 73.588,215.333 73.545,214.800 73.200 C 214.470 72.987,213.930 72.812,213.600 72.812 C 213.067 72.812,213.067 72.855,213.600 73.200 M223.986 77.483 C 228.279 80.607,230.205 82.217,232.976 85.000 C 235.260 87.294,235.715 87.641,234.581 86.227 C 232.851 84.070,226.475 78.625,224.341 77.483 C 223.051 76.793,223.038 76.793,223.986 77.483 M174.400 80.645 C 172.065 82.466,168.174 86.271,167.082 87.800 C 166.611 88.460,167.840 87.371,169.813 85.380 C 171.786 83.389,174.120 81.194,175.000 80.501 C 175.880 79.809,176.510 79.242,176.400 79.242 C 176.290 79.241,175.390 79.873,174.400 80.645 M196.000 88.420 C 195.326 88.649,195.651 88.684,197.000 88.528 C 198.100 88.401,199.075 88.231,199.167 88.149 C 199.482 87.868,196.999 88.080,196.000 88.420 M205.400 88.400 C 207.092 88.831,208.544 88.831,207.200 88.400 C 206.650 88.224,205.750 88.083,205.200 88.087 C 204.302 88.094,204.322 88.126,205.400 88.400 M236.740 89.516 C 237.233 90.209,237.844 90.904,238.097 91.060 C 238.350 91.217,238.154 90.777,237.660 90.084 C 237.167 89.391,236.556 88.696,236.303 88.540 C 236.050 88.383,236.246 88.823,236.740 89.516 M211.233 89.749 C 211.645 90.117,214.000 91.200,214.000 91.021 C 214.000 90.790,211.782 89.600,211.353 89.600 C 211.196 89.600,211.142 89.667,211.233 89.749 M186.985 91.944 C 185.421 92.898,181.015 96.975,179.985 98.422 C 179.547 99.036,180.714 98.031,182.577 96.188 C 184.440 94.346,186.513 92.555,187.182 92.209 C 187.852 91.863,188.400 91.494,188.400 91.390 C 188.400 91.103,188.299 91.143,186.985 91.944 M216.405 92.652 C 219.058 94.406,221.172 96.348,223.247 98.936 C 224.101 100.001,224.800 100.739,224.800 100.577 C 224.800 99.118,216.125 91.200,214.527 91.200 C 214.353 91.200,215.198 91.853,216.405 92.652 M238.409 91.900 C 238.414 92.065,238.785 92.650,239.233 93.200 L 240.048 94.200 239.414 92.900 C 238.811 91.665,238.389 91.245,238.409 91.900 M240.678 95.795 C 241.044 96.562,241.414 97.119,241.501 97.032 C 241.684 96.849,240.470 94.400,240.196 94.400 C 240.095 94.400,240.312 95.028,240.678 95.795 M225.882 103.389 C 226.473 104.593,227.023 105.511,227.105 105.429 C 227.284 105.249,225.267 101.200,224.998 101.200 C 224.894 101.200,225.292 102.185,225.882 103.389 M158.629 104.629 C 158.481 105.215,158.438 105.772,158.532 105.866 C 158.627 105.960,158.824 105.558,158.971 104.971 C 159.119 104.385,159.162 103.828,159.068 103.734 C 158.973 103.640,158.776 104.042,158.629 104.629 M244.056 104.800 C 244.056 105.130,244.211 105.760,244.400 106.200 C 244.617 106.704,244.744 106.778,244.744 106.400 C 244.744 106.070,244.589 105.440,244.400 105.000 C 244.183 104.496,244.056 104.422,244.056 104.800 M157.800 108.400 C 157.646 109.310,157.604 110.138,157.707 110.240 C 157.810 110.343,158.013 109.677,158.160 108.760 C 158.307 107.843,158.348 107.015,158.253 106.920 C 158.158 106.824,157.954 107.490,157.800 108.400 M174.600 109.200 C 174.448 109.891,174.407 110.541,174.509 110.642 C 174.611 110.744,174.809 110.253,174.950 109.550 C 175.283 107.883,174.960 107.560,174.600 109.200 M245.081 110.800 C 245.204 112.450,245.371 113.875,245.452 113.967 C 245.731 114.281,245.554 111.001,245.206 109.400 C 244.948 108.214,244.916 108.576,245.081 110.800 M228.075 109.400 C 228.086 109.840,228.232 110.740,228.400 111.400 L 228.705 112.600 228.725 111.400 C 228.735 110.740,228.589 109.840,228.400 109.400 L 228.056 108.600 228.075 109.400 M157.200 131.243 C 157.200 148.831,157.135 150.861,156.579 150.647 C 156.223 150.511,156.063 150.578,156.203 150.805 C 157.495 152.896,157.600 151.444,157.600 131.400 C 157.600 120.510,157.510 111.600,157.400 111.600 C 157.290 111.600,157.200 120.439,157.200 131.243 M173.903 114.000 C 173.740 115.210,173.605 124.152,173.603 133.871 C 173.600 152.731,173.612 152.852,175.529 152.772 C 176.062 152.750,176.036 152.680,175.400 152.432 C 174.618 152.127,174.595 151.654,174.400 131.960 C 174.287 120.540,174.071 112.754,173.903 114.000 M228.918 143.400 C 228.884 159.020,228.979 172.109,229.128 172.486 C 229.376 173.112,229.348 137.414,229.088 121.600 C 229.028 117.970,228.952 127.780,228.918 143.400 M103.700 151.076 C 104.085 151.176,104.715 151.176,105.100 151.076 C 105.485 150.975,105.170 150.893,104.400 150.893 C 103.630 150.893,103.315 150.975,103.700 151.076 M245.628 155.476 C 245.613 155.958,245.780 156.464,246.000 156.600 C 246.473 156.892,246.473 156.501,246.000 155.400 C 245.669 154.629,245.655 154.631,245.628 155.476 M246.718 157.847 C 247.233 158.808,249.154 160.179,249.501 159.832 C 249.629 159.704,249.537 159.600,249.297 159.600 C 249.058 159.600,248.278 159.017,247.565 158.304 C 246.727 157.465,246.428 157.304,246.718 157.847 M82.370 160.700 L 81.400 161.800 82.600 160.800 C 83.260 160.250,83.875 159.755,83.967 159.700 C 84.058 159.645,83.955 159.600,83.736 159.600 C 83.518 159.600,82.903 160.095,82.370 160.700 M250.537 160.494 C 250.792 160.656,260.000 160.751,271.000 160.706 C 282.000 160.661,288.480 160.574,285.400 160.514 C 271.446 160.240,250.119 160.228,250.537 160.494 M295.600 161.200 C 296.150 161.376,296.960 161.520,297.400 161.520 C 298.033 161.520,297.992 161.454,297.200 161.200 C 296.650 161.024,295.840 160.880,295.400 160.880 C 294.767 160.880,294.808 160.946,295.600 161.200 M79.200 163.400 C 78.228 164.390,77.523 165.200,77.633 165.200 C 77.743 165.200,78.628 164.390,79.600 163.400 C 80.572 162.410,81.277 161.600,81.167 161.600 C 81.057 161.600,80.172 162.410,79.200 163.400 M299.800 162.000 C 300.240 162.189,300.870 162.344,301.200 162.344 C 301.578 162.344,301.504 162.217,301.000 162.000 C 300.560 161.811,299.930 161.656,299.600 161.656 C 299.222 161.656,299.296 161.783,299.800 162.000 M204.000 164.562 C 204.000 164.672,204.810 165.319,205.800 166.000 C 206.790 166.681,207.600 167.148,207.600 167.038 C 207.600 166.928,206.790 166.281,205.800 165.600 C 204.810 164.919,204.000 164.452,204.000 164.562 M310.766 166.008 C 311.957 166.665,313.010 167.124,313.105 167.028 C 313.293 166.840,309.432 164.795,308.913 164.807 C 308.741 164.811,309.575 165.352,310.766 166.008 M76.175 166.900 L 75.000 168.200 76.300 167.025 C 77.015 166.379,77.600 165.794,77.600 165.725 C 77.600 165.416,77.270 165.688,76.175 166.900 M108.505 167.487 C 109.114 167.579,110.014 167.577,110.505 167.482 C 110.997 167.387,110.500 167.311,109.400 167.314 C 108.300 167.317,107.897 167.395,108.505 167.487 M313.600 167.300 C 313.710 167.423,314.970 168.360,316.400 169.381 C 318.258 170.708,318.556 170.848,317.445 169.872 C 316.128 168.717,312.993 166.619,313.600 167.300 M103.200 168.418 C 102.762 168.715,102.924 168.752,103.800 168.556 C 105.271 168.227,105.590 167.998,104.567 168.006 C 104.145 168.009,103.530 168.195,103.200 168.418 M74.093 169.500 C 73.057 170.996,72.721 171.600,72.923 171.600 C 73.017 171.600,73.570 170.880,74.153 170.000 C 75.336 168.212,75.284 167.779,74.093 169.500 M157.693 170.000 C 157.695 171.765,158.291 174.388,158.330 172.800 C 158.343 172.250,158.205 171.080,158.023 170.200 L 157.692 168.600 157.693 170.000 M174.589 170.100 C 174.487 170.375,174.571 171.140,174.776 171.800 C 175.127 172.931,175.144 172.902,175.074 171.301 C 174.996 169.519,174.897 169.272,174.589 170.100 M321.311 173.700 C 322.460 174.855,323.479 175.751,323.576 175.691 C 323.814 175.543,319.910 171.600,319.526 171.600 C 319.359 171.600,320.162 172.545,321.311 173.700 M214.000 172.125 C 214.000 172.194,214.585 172.779,215.300 173.425 L 216.600 174.600 215.425 173.300 C 214.330 172.088,214.000 171.816,214.000 172.125 M91.200 175.400 C 90.228 176.390,89.523 177.200,89.633 177.200 C 89.743 177.200,90.628 176.390,91.600 175.400 C 92.572 174.410,93.277 173.600,93.167 173.600 C 93.057 173.600,92.172 174.410,91.200 175.400 M230.202 174.520 C 230.596 175.137,231.477 175.910,232.159 176.240 C 233.281 176.781,233.323 176.780,232.600 176.224 C 232.160 175.886,231.279 175.112,230.643 174.505 L 229.485 173.400 230.202 174.520 M175.268 174.600 C 175.262 175.040,175.411 175.760,175.600 176.200 C 176.038 177.219,176.038 176.168,175.600 174.800 C 175.343 173.996,175.277 173.957,175.268 174.600 M158.468 175.800 C 158.474 176.240,158.624 177.050,158.800 177.600 L 159.120 178.600 159.132 177.600 C 159.138 177.050,158.989 176.240,158.800 175.800 L 158.456 175.000 158.468 175.800 M325.355 178.119 C 326.203 179.153,326.980 180.000,327.082 180.000 C 327.355 180.000,324.821 176.860,324.277 176.524 C 324.022 176.366,324.507 177.084,325.355 178.119 M234.474 177.260 C 234.983 177.403,248.180 177.499,263.800 177.472 C 279.420 177.446,289.770 177.375,286.800 177.315 C 274.433 177.063,233.620 177.020,234.474 177.260 M176.006 178.233 C 176.009 178.655,176.195 179.270,176.418 179.600 C 176.715 180.038,176.752 179.876,176.556 179.000 C 176.227 177.529,175.998 177.210,176.006 178.233 M293.633 177.747 C 293.725 177.828,294.520 178.014,295.400 178.162 C 296.546 178.354,296.830 178.314,296.400 178.021 C 295.860 177.653,293.232 177.393,293.633 177.747 M297.800 178.800 C 298.996 179.314,299.995 179.314,299.200 178.800 C 298.870 178.587,298.240 178.422,297.800 178.434 L 297.000 178.456 297.800 178.800 M159.256 179.800 C 159.256 180.240,159.411 180.960,159.600 181.400 L 159.944 182.200 159.944 181.400 C 159.944 180.960,159.789 180.240,159.600 179.800 L 159.256 179.000 159.256 179.800 M221.600 179.725 C 221.600 179.794,222.185 180.379,222.900 181.025 L 224.200 182.200 223.025 180.900 C 221.930 179.688,221.600 179.416,221.600 179.725 M327.724 181.400 C 328.062 182.060,328.638 182.960,329.004 183.400 C 329.370 183.840,329.265 183.480,328.770 182.600 C 327.680 180.658,326.864 179.722,327.724 181.400 M176.812 181.200 C 176.812 181.530,176.987 182.070,177.200 182.400 C 177.545 182.933,177.588 182.933,177.588 182.400 C 177.588 182.070,177.413 181.530,177.200 181.200 C 176.855 180.667,176.812 180.667,176.812 181.200 M198.000 180.926 C 198.000 181.036,198.900 181.879,200.000 182.800 C 201.100 183.721,202.000 184.384,202.000 184.274 C 202.000 184.164,201.100 183.321,200.000 182.400 C 198.900 181.479,198.000 180.816,198.000 180.926 M303.600 180.900 C 303.710 181.024,304.788 181.789,305.996 182.600 C 307.204 183.411,307.883 183.734,307.505 183.317 C 307.128 182.899,306.050 182.134,305.109 181.616 C 304.169 181.099,303.490 180.776,303.600 180.900 M160.034 183.200 C 160.046 183.530,160.211 184.160,160.400 184.600 L 160.744 185.400 160.766 184.600 C 160.778 184.160,160.613 183.530,160.400 183.200 C 160.055 182.667,160.015 182.667,160.034 183.200 M177.612 183.600 C 177.612 183.930,177.787 184.470,178.000 184.800 C 178.345 185.333,178.388 185.333,178.388 184.800 C 178.388 184.470,178.213 183.930,178.000 183.600 C 177.655 183.067,177.612 183.067,177.612 183.600 M310.400 186.200 C 311.595 187.410,312.663 188.400,312.773 188.400 C 312.883 188.400,311.995 187.410,310.800 186.200 C 309.605 184.990,308.537 184.000,308.427 184.000 C 308.317 184.000,309.205 184.990,310.400 186.200 M202.800 184.925 C 202.800 184.994,203.385 185.579,204.100 186.225 L 205.400 187.400 204.225 186.100 C 203.130 184.888,202.800 184.616,202.800 184.925 M313.406 189.712 C 313.792 190.324,314.209 190.724,314.332 190.601 C 314.455 190.478,314.139 189.978,313.630 189.489 L 312.704 188.600 313.406 189.712 M208.600 190.800 C 209.459 191.680,210.252 192.400,210.362 192.400 C 210.472 192.400,209.859 191.680,209.000 190.800 C 208.141 189.920,207.348 189.200,207.238 189.200 C 207.128 189.200,207.741 189.920,208.600 190.800 M332.012 190.000 C 332.012 190.330,332.187 190.870,332.400 191.200 C 332.745 191.733,332.788 191.733,332.788 191.200 C 332.788 190.870,332.613 190.330,332.400 190.000 C 332.055 189.467,332.012 189.467,332.012 190.000 M83.283 194.400 C 83.268 196.930,83.381 199.317,83.535 199.704 C 83.688 200.090,83.758 198.380,83.690 195.904 C 83.519 189.654,83.314 188.898,83.283 194.400 M315.078 192.595 C 315.444 193.362,315.814 193.919,315.901 193.832 C 316.084 193.649,314.870 191.200,314.596 191.200 C 314.495 191.200,314.712 191.828,315.078 192.595 M332.856 192.400 C 332.856 192.730,333.011 193.360,333.200 193.800 C 333.417 194.304,333.544 194.378,333.544 194.000 C 333.544 193.670,333.389 193.040,333.200 192.600 C 332.983 192.096,332.856 192.022,332.856 192.400 M232.600 195.200 C 232.941 195.860,233.311 196.400,233.421 196.400 C 233.531 196.400,233.341 195.860,233.000 195.200 C 232.659 194.540,232.289 194.000,232.179 194.000 C 232.069 194.000,232.259 194.540,232.600 195.200 M182.415 194.600 C 182.417 194.820,182.786 195.450,183.236 196.000 C 183.779 196.664,183.915 196.731,183.640 196.200 C 182.966 194.895,182.412 194.172,182.415 194.600 M164.017 195.100 C 164.039 195.501,165.562 198.270,165.583 197.949 C 165.611 197.535,164.405 194.800,164.195 194.800 C 164.088 194.800,164.008 194.935,164.017 195.100 M333.680 195.400 C 333.680 195.840,333.824 196.650,334.000 197.200 C 334.254 197.992,334.320 198.033,334.320 197.400 C 334.320 196.960,334.176 196.150,334.000 195.600 C 333.746 194.808,333.680 194.767,333.680 195.400 M317.044 197.400 C 317.373 198.871,317.602 199.190,317.594 198.167 C 317.591 197.745,317.405 197.130,317.182 196.800 C 316.885 196.362,316.848 196.524,317.044 197.400 M184.811 198.700 C 184.817 198.865,185.368 199.630,186.036 200.400 L 187.251 201.800 186.172 200.100 C 185.115 198.434,184.789 198.099,184.811 198.700 M317.800 205.005 C 317.800 207.999,317.917 210.033,318.060 209.525 C 318.203 209.016,318.320 206.980,318.320 205.000 C 318.320 203.020,318.203 200.986,318.060 200.480 C 317.917 199.974,317.800 202.010,317.800 205.005 M334.585 205.200 C 334.592 210.424,334.627 210.712,334.934 208.100 C 335.126 206.476,335.122 203.924,334.927 202.300 C 334.612 199.685,334.578 199.970,334.585 205.200 M168.586 204.300 C 168.935 205.015,169.306 205.600,169.410 205.600 C 169.808 205.600,169.552 204.963,168.767 204.000 L 167.952 203.000 168.586 204.300 M190.600 206.400 C 192.436 208.726,194.041 210.492,194.183 210.342 C 194.257 210.264,193.232 209.030,191.906 207.600 C 190.580 206.170,189.992 205.630,190.600 206.400 M171.252 208.600 C 172.176 210.245,175.522 214.800,175.806 214.800 C 175.893 214.800,175.028 213.489,173.883 211.888 C 170.508 207.168,170.308 206.919,171.252 208.600 M196.000 212.178 C 196.000 212.416,197.179 213.506,199.900 215.783 C 202.258 217.756,201.252 216.544,198.600 214.215 C 197.170 212.960,196.000 212.043,196.000 212.178 M333.850 213.250 C 333.709 213.953,333.669 214.602,333.759 214.692 C 333.850 214.783,334.048 214.291,334.200 213.600 C 334.352 212.909,334.393 212.259,334.291 212.158 C 334.189 212.056,333.991 212.547,333.850 213.250 M333.073 216.153 C 332.923 216.545,332.811 217.166,332.825 217.533 C 332.842 217.975,332.981 217.874,333.237 217.234 C 333.449 216.703,333.561 216.082,333.485 215.854 C 333.409 215.627,333.224 215.761,333.073 216.153 M179.576 219.502 C 180.735 220.878,181.844 222.103,182.041 222.225 C 182.905 222.759,182.230 221.897,179.935 219.536 L 177.470 217.000 179.576 219.502 M73.467 218.806 C 73.859 219.470,74.598 220.505,75.110 221.106 C 75.621 221.708,75.375 221.165,74.563 219.900 C 73.024 217.503,72.228 216.707,73.467 218.806 M313.431 219.886 C 312.615 221.143,312.284 221.867,312.695 221.495 C 313.431 220.829,315.411 217.600,315.083 217.600 C 314.990 217.600,314.247 218.629,313.431 219.886 M204.800 219.347 C 204.800 219.654,207.655 221.678,207.834 221.499 C 207.934 221.399,207.293 220.838,206.408 220.253 C 205.524 219.668,204.800 219.260,204.800 219.347 M109.105 221.883 C 109.602 221.979,110.322 221.975,110.705 221.875 C 111.087 221.775,110.680 221.696,109.800 221.701 C 108.920 221.705,108.607 221.787,109.105 221.883 M209.200 222.367 C 210.163 223.152,210.800 223.408,210.800 223.010 C 210.800 222.906,210.215 222.535,209.500 222.186 L 208.200 221.552 209.200 222.367 M184.600 224.350 C 187.067 226.982,196.000 234.136,196.000 233.480 C 196.000 233.377,194.335 232.066,192.300 230.567 C 190.265 229.068,187.250 226.576,185.600 225.029 C 183.333 222.904,183.089 222.738,184.600 224.350 M310.000 224.070 C 309.010 224.971,307.255 226.339,306.100 227.110 C 303.624 228.765,303.344 229.220,305.573 227.967 C 306.991 227.170,312.485 222.441,312.000 222.435 C 311.890 222.434,310.990 223.170,310.000 224.070 M329.900 224.500 C 329.301 225.624,328.886 226.619,328.978 226.712 C 329.071 226.804,329.620 225.944,330.200 224.800 C 331.572 222.093,331.318 221.840,329.900 224.500 M76.400 222.910 C 76.400 222.971,77.795 224.366,79.500 226.010 L 82.600 229.000 79.610 225.900 C 76.833 223.021,76.400 222.617,76.400 222.910 M243.293 227.600 C 243.293 228.370,243.375 228.685,243.476 228.300 C 243.576 227.915,243.576 227.285,243.476 226.900 C 243.375 226.515,243.293 226.830,243.293 227.600 M172.590 256.600 C 172.589 272.220,172.639 278.668,172.700 270.929 C 172.761 263.191,172.761 250.411,172.700 242.529 C 172.639 234.648,172.590 240.980,172.590 256.600 M226.432 228.727 C 226.411 229.071,226.087 229.174,225.500 229.025 L 224.600 228.796 225.504 229.261 C 226.497 229.771,227.000 229.541,226.673 228.725 C 226.500 228.293,226.458 228.293,226.432 228.727 M298.400 230.800 C 297.867 231.145,297.867 231.188,298.400 231.188 C 298.730 231.188,299.270 231.013,299.600 230.800 C 300.133 230.455,300.133 230.412,299.600 230.412 C 299.270 230.412,298.730 230.587,298.400 230.800 M295.400 231.600 C 294.293 231.882,294.277 231.909,295.200 231.947 C 295.750 231.969,296.470 231.813,296.800 231.600 C 297.481 231.160,297.129 231.160,295.400 231.600 M256.700 232.300 C 263.355 232.361,274.245 232.361,280.900 232.300 C 287.555 232.238,282.110 232.188,268.800 232.188 C 255.490 232.188,250.045 232.238,256.700 232.300 M323.015 234.500 C 322.232 235.435,320.558 237.043,319.295 238.073 C 316.424 240.417,315.240 241.464,315.781 241.181 C 317.900 240.072,325.593 232.800,324.647 232.800 C 324.533 232.800,323.799 233.565,323.015 234.500 M198.800 235.335 C 198.800 235.437,199.401 235.875,200.135 236.308 C 200.869 236.741,201.994 237.411,202.635 237.795 L 203.800 238.495 202.800 237.667 C 201.657 236.721,198.800 235.056,198.800 235.335 M105.907 238.690 C 106.626 238.779,107.706 238.777,108.307 238.686 C 108.908 238.595,108.320 238.522,107.000 238.524 C 105.680 238.526,105.188 238.601,105.907 238.690 M207.600 240.400 C 208.810 241.039,209.980 241.562,210.200 241.562 C 210.420 241.562,209.610 241.039,208.400 240.400 C 207.190 239.761,206.020 239.238,205.800 239.238 C 205.580 239.238,206.390 239.761,207.600 240.400 M153.829 241.238 C 154.473 242.029,155.081 242.608,155.179 242.525 C 155.278 242.442,154.751 241.795,154.009 241.087 L 152.658 239.800 153.829 241.238 M312.900 242.626 C 311.965 243.187,311.200 243.740,311.200 243.855 C 311.200 244.071,313.899 242.538,314.580 241.936 C 315.267 241.328,314.627 241.591,312.900 242.626 M155.502 259.538 C 155.558 268.262,155.653 278.100,155.713 281.400 C 155.773 284.700,155.860 277.770,155.905 266.000 C 155.951 254.230,155.856 244.392,155.694 244.138 C 155.532 243.883,155.446 250.813,155.502 259.538 M303.600 246.800 C 303.067 247.145,303.067 247.188,303.600 247.188 C 303.930 247.188,304.470 247.013,304.800 246.800 C 305.333 246.455,305.333 246.412,304.800 246.412 C 304.470 246.412,303.930 246.587,303.600 246.800 M300.400 247.600 C 299.605 248.114,300.604 248.114,301.800 247.600 L 302.600 247.256 301.800 247.234 C 301.360 247.222,300.730 247.387,300.400 247.600 M294.000 248.400 L 291.800 248.670 294.000 248.687 C 295.210 248.697,296.740 248.568,297.400 248.400 L 298.600 248.095 297.400 248.113 C 296.740 248.122,295.210 248.252,294.000 248.400 M244.185 267.400 C 244.185 277.740,244.236 282.027,244.300 276.928 C 244.363 271.828,244.363 263.368,244.300 258.128 C 244.237 252.887,244.185 257.060,244.185 267.400 M156.856 293.600 C 156.856 293.930,157.011 294.560,157.200 295.000 C 157.417 295.504,157.544 295.578,157.544 295.200 C 157.544 294.870,157.389 294.240,157.200 293.800 C 156.983 293.296,156.856 293.222,156.856 293.600 M218.400 303.697 C 216.750 305.273,215.940 306.179,216.600 305.712 C 217.778 304.879,221.948 300.784,221.585 300.817 C 221.483 300.826,220.050 302.122,218.400 303.697 M181.000 303.600 C 182.083 304.700,183.060 305.600,183.170 305.600 C 183.280 305.600,182.483 304.700,181.400 303.600 C 180.317 302.500,179.340 301.600,179.230 301.600 C 179.120 301.600,179.917 302.500,181.000 303.600 M236.185 308.900 C 235.568 309.835,235.320 310.389,235.632 310.131 C 236.233 309.634,237.764 307.200,237.476 307.200 C 237.383 307.200,236.802 307.965,236.185 308.900 M195.100 311.082 C 195.595 311.178,196.405 311.178,196.900 311.082 C 197.395 310.987,196.990 310.909,196.000 310.909 C 195.010 310.909,194.605 310.987,195.100 311.082 M167.200 313.725 C 167.200 313.794,167.785 314.379,168.500 315.025 L 169.800 316.200 168.625 314.900 C 167.530 313.688,167.200 313.416,167.200 313.725 M230.981 315.300 L 229.400 317.000 231.100 315.419 C 232.681 313.948,232.984 313.600,232.681 313.600 C 232.616 313.600,231.851 314.365,230.981 315.300 M170.924 317.077 C 171.260 317.621,174.400 320.155,174.400 319.882 C 174.400 319.780,173.553 319.003,172.519 318.155 C 171.484 317.307,170.766 316.822,170.924 317.077 M175.069 320.432 C 175.566 321.033,178.000 322.564,178.000 322.276 C 178.000 322.183,177.235 321.602,176.300 320.985 C 175.365 320.368,174.811 320.120,175.069 320.432 M221.500 322.229 C 220.005 323.040,220.096 323.378,221.600 322.600 C 222.260 322.259,222.800 321.894,222.800 321.790 C 222.800 321.532,222.757 321.547,221.500 322.229 M188.200 326.800 C 188.640 326.989,189.270 327.144,189.600 327.144 C 189.978 327.144,189.904 327.017,189.400 326.800 C 188.960 326.611,188.330 326.456,188.000 326.456 C 187.622 326.456,187.696 326.583,188.200 326.800 " stroke="none" fill="#74617a" fill-rule="evenodd"></path><path id="path4" d="M198.200 71.545 C 196.708 71.743,197.825 71.880,202.600 72.082 C 206.300 72.239,209.994 72.621,211.357 72.987 C 212.653 73.335,213.795 73.538,213.894 73.439 C 214.761 72.573,202.031 71.037,198.200 71.545 M192.000 72.464 C 174.987 77.114,162.482 89.468,158.863 105.200 C 158.636 106.190,158.313 107.450,158.146 108.000 C 157.979 108.550,157.743 118.540,157.622 130.200 C 157.428 148.758,157.325 151.384,156.800 151.271 C 156.309 151.166,156.294 151.238,156.717 151.668 C 157.858 152.828,157.988 150.747,157.994 131.263 C 158.001 109.752,158.208 107.315,160.573 101.033 C 166.483 85.333,177.882 75.915,195.400 72.260 C 195.840 72.168,195.570 72.090,194.800 72.087 C 194.030 72.084,192.770 72.254,192.000 72.464 M215.000 74.000 C 216.101 74.473,216.492 74.473,216.200 74.000 C 216.064 73.780,215.558 73.613,215.076 73.628 C 214.231 73.655,214.229 73.669,215.000 74.000 M219.017 75.511 C 230.784 80.813,240.255 91.925,243.450 104.177 C 244.759 109.198,244.920 111.954,245.176 133.800 L 245.438 156.200 245.519 135.868 C 245.633 107.217,244.971 102.887,238.900 92.600 C 234.476 85.103,221.574 74.319,217.139 74.411 C 216.843 74.417,217.687 74.912,219.017 75.511 M198.600 87.624 C 185.700 88.932,173.317 101.709,173.646 113.373 C 173.681 114.615,173.816 114.243,174.218 111.800 C 179.126 81.983,219.717 79.429,228.255 108.400 C 228.819 110.311,228.936 114.696,229.152 141.800 C 229.430 176.830,229.148 173.848,232.398 176.050 C 233.772 176.981,234.003 177.002,244.000 177.098 C 268.040 177.330,295.519 177.385,295.334 177.200 C 295.224 177.090,281.424 176.910,264.667 176.800 C 230.754 176.577,232.791 176.753,230.642 173.871 C 229.808 172.753,229.798 172.459,229.576 141.671 C 229.341 109.137,229.393 110.056,227.499 105.200 C 222.931 93.492,211.185 86.348,198.600 87.624 M122.328 150.700 C 128.559 150.762,138.639 150.762,144.728 150.700 C 150.818 150.638,145.720 150.587,133.400 150.587 C 121.080 150.587,116.098 150.638,122.328 150.700 M245.600 156.769 C 245.600 157.427,247.661 159.610,248.948 160.314 C 250.074 160.931,252.491 161.023,273.000 161.228 C 298.673 161.485,299.237 161.543,306.968 164.727 C 326.131 172.617,337.992 194.403,333.446 213.359 C 333.082 214.876,332.869 216.202,332.973 216.306 C 333.076 216.410,333.278 215.978,333.421 215.347 C 333.563 214.716,333.871 213.480,334.103 212.600 C 334.775 210.060,334.589 199.470,333.816 196.243 C 331.551 186.785,328.013 180.373,321.421 173.779 C 314.742 167.097,307.839 163.683,296.069 161.242 C 294.669 160.951,286.615 160.800,272.565 160.800 C 248.487 160.800,248.519 160.804,246.706 157.730 C 245.906 156.375,245.600 156.109,245.600 156.769 M133.670 167.100 L 157.540 167.206 157.922 169.303 C 158.283 171.280,158.308 171.313,158.352 169.874 C 158.457 166.527,160.614 166.788,133.686 166.897 L 109.800 166.994 133.670 167.100 M174.406 171.833 C 174.416 172.999,175.883 179.665,176.379 180.800 C 176.879 181.942,176.762 181.058,175.981 177.800 C 175.769 176.920,175.407 175.125,175.175 173.810 C 174.743 171.363,174.395 170.467,174.406 171.833 M158.428 173.233 C 158.444 174.205,158.614 175.360,158.808 175.800 C 159.031 176.308,159.074 175.724,158.924 174.200 C 158.640 171.299,158.390 170.812,158.428 173.233 M159.246 177.554 C 159.221 178.078,159.372 179.158,159.582 179.954 C 159.792 180.749,160.071 181.916,160.201 182.547 C 160.332 183.178,160.533 183.600,160.648 183.486 C 160.763 183.371,160.583 182.134,160.249 180.738 C 159.914 179.342,159.563 177.840,159.467 177.400 C 159.320 176.726,159.285 176.750,159.246 177.554 M296.400 178.000 C 296.730 178.213,297.360 178.378,297.800 178.366 L 298.600 178.344 297.800 178.000 C 296.604 177.486,295.605 177.486,296.400 178.000 M299.600 178.854 C 311.824 184.148,318.407 193.375,318.398 205.200 C 318.389 216.423,310.124 227.662,299.600 230.763 C 298.610 231.054,297.260 231.497,296.600 231.746 C 295.751 232.067,287.843 232.200,269.529 232.200 C 255.300 232.200,243.914 232.344,244.228 232.519 C 244.541 232.695,256.273 232.778,270.299 232.704 L 295.800 232.569 299.000 231.471 C 317.656 225.066,324.679 203.738,313.232 188.244 C 310.545 184.606,303.173 179.349,299.800 178.665 C 298.651 178.432,298.643 178.440,299.600 178.854 M177.074 182.979 C 177.877 186.727,183.997 199.336,184.682 198.652 C 184.789 198.544,184.352 197.679,183.711 196.728 C 182.357 194.723,179.715 189.262,178.423 185.800 C 177.100 182.253,176.771 181.565,177.074 182.979 M160.807 184.400 C 160.813 186.879,165.809 198.894,169.456 205.200 C 177.529 219.162,191.617 232.125,206.914 239.670 C 209.066 240.731,211.046 241.594,211.314 241.586 C 211.581 241.578,209.820 240.618,207.400 239.452 C 186.314 229.291,169.928 210.762,162.430 188.600 C 161.536 185.960,160.806 184.070,160.807 184.400 M82.924 194.600 C 82.926 195.920,83.001 196.412,83.090 195.693 C 83.179 194.974,83.177 193.894,83.086 193.293 C 82.995 192.692,82.922 193.280,82.924 194.600 M185.053 199.700 C 189.242 206.673,199.875 217.308,206.700 221.351 C 208.150 222.210,206.850 221.010,204.401 219.228 C 198.730 215.103,195.239 211.935,191.589 207.600 C 190.385 206.170,189.304 204.910,189.186 204.800 C 189.069 204.690,188.115 203.385,187.066 201.900 C 185.432 199.585,184.129 198.162,185.053 199.700 M331.611 219.650 C 328.255 229.508,319.934 238.774,310.018 243.695 C 307.918 244.737,306.479 245.592,306.820 245.595 C 307.161 245.598,307.611 245.449,307.820 245.264 C 308.029 245.079,308.830 244.681,309.600 244.379 C 314.733 242.367,321.629 236.680,325.976 230.876 C 328.890 226.986,333.134 218.401,332.735 217.204 C 332.656 216.967,332.150 218.067,331.611 219.650 M207.820 221.963 C 210.376 224.408,225.991 230.614,226.953 229.568 C 227.287 229.205,227.273 229.154,226.898 229.366 C 225.794 229.990,209.454 223.382,208.572 221.955 C 208.452 221.760,208.147 221.600,207.896 221.600 C 207.611 221.600,207.582 221.736,207.820 221.963 M79.983 226.100 C 80.964 227.145,81.819 228.000,81.883 228.000 C 82.184 228.000,81.866 227.641,80.100 225.983 L 78.200 224.200 79.983 226.100 M172.190 257.400 C 172.189 273.020,172.239 279.468,172.300 271.729 C 172.361 263.991,172.361 251.211,172.300 243.329 C 172.239 235.448,172.190 241.780,172.190 257.400 M212.111 241.856 C 212.336 242.219,220.530 244.998,224.200 245.955 C 225.080 246.184,226.250 246.489,226.800 246.631 C 227.437 246.796,227.655 246.752,227.400 246.510 C 227.180 246.302,225.733 245.836,224.184 245.475 C 221.737 244.906,214.907 242.721,212.634 241.781 C 212.160 241.585,211.961 241.613,212.111 241.856 M303.200 246.417 C 301.990 246.821,301.360 247.159,301.800 247.170 C 302.674 247.190,305.420 246.313,305.859 245.874 C 306.261 245.472,305.662 245.595,303.200 246.417 M227.785 265.800 C 227.785 276.140,227.836 280.427,227.900 275.328 C 227.963 270.228,227.963 261.768,227.900 256.528 C 227.837 251.287,227.785 255.460,227.785 265.800 M298.000 247.600 L 296.200 247.880 298.000 247.934 C 298.990 247.963,300.070 247.813,300.400 247.600 C 301.105 247.145,300.929 247.145,298.000 247.600 M244.200 248.400 C 243.909 248.872,290.008 248.886,293.800 248.415 C 295.120 248.252,284.556 248.091,270.324 248.059 C 253.440 248.020,244.361 248.139,244.200 248.400 M243.693 285.600 C 243.693 286.370,243.775 286.685,243.876 286.300 C 243.976 285.915,243.976 285.285,243.876 284.900 C 243.775 284.515,243.693 284.830,243.693 285.600 M156.093 286.400 C 156.093 287.170,156.175 287.485,156.276 287.100 C 156.376 286.715,156.376 286.085,156.276 285.700 C 156.175 285.315,156.093 285.630,156.093 286.400 M198.100 311.494 C 199.145 311.576,200.855 311.576,201.900 311.494 C 202.945 311.412,202.090 311.344,200.000 311.344 C 197.910 311.344,197.055 311.412,198.100 311.494 M198.900 327.894 C 199.945 327.976,201.655 327.976,202.700 327.894 C 203.745 327.812,202.890 327.744,200.800 327.744 C 198.710 327.744,197.855 327.812,198.900 327.894 " stroke="none" fill="#876a94" fill-rule="evenodd"></path></g></svg>