<?xml version="1.0" encoding="UTF-8"?>
<svg version="1.1" xmlns="http://www.w3.org/2000/svg" width="500" height="500">
<path d="M0 0 C2.62401776 1.30600247 5.14158642 2.72708191 7.66796875 4.21313477 C8.60898437 4.74648437 9.55 5.27983398 10.51953125 5.8293457 C13.56077182 7.5613302 16.58389721 9.322089 19.60546875 11.08813477 C21.69770125 12.29944443 23.79015005 13.51038054 25.8828125 14.72094727 C29.99545545 17.10731549 34.10023616 19.50650828 38.19921875 21.91625977 C42.31815199 24.3373337 46.45103468 26.72857755 50.60546875 29.08813477 C54.67776892 31.40116206 58.72949696 33.74373969 62.765625 36.11938477 C73.77703448 42.59547754 84.84735976 48.93739655 96.04296875 55.08813477 C96.95758881 55.59070297 96.95758881 55.59070297 97.89068604 56.10342407 C100.34239227 57.45024714 102.79433648 58.79663589 105.24655151 60.14253235 C154.95002648 87.4326925 154.95002648 87.4326925 158.60546875 91.08813477 C158.70155538 92.73304026 158.72734662 94.38209168 158.72572327 96.02980042 C158.72778526 97.63475876 158.72778526 97.63475876 158.72988892 99.2721405 C158.72629364 100.45608902 158.72269836 101.64003754 158.71899414 102.85986328 C158.71914017 104.09871277 158.71928619 105.33756226 158.71943665 106.61395264 C158.71885767 110.02083309 158.71382834 113.4276536 158.70686269 116.83452344 C158.70062868 120.39130303 158.70002531 123.94808334 158.69883728 127.50486755 C158.6957241 134.24450058 158.6875109 140.98411747 158.67748779 147.72374338 C158.66632623 155.39471875 158.6608161 163.06569487 158.65579236 170.73667634 C158.64532827 186.52050517 158.6277291 202.30431789 158.60546875 218.08813477 C151.82586521 221.49059437 145.04470782 224.88994143 138.26245117 228.28710938 C135.95447298 229.44361579 133.646854 230.60083933 131.33959961 231.75878906 C128.02681719 233.42123199 124.71275963 235.08110781 121.3984375 236.74047852 C119.84675117 237.52019264 119.84675117 237.52019264 118.26371765 238.31565857 C117.30294815 238.79608109 116.34217865 239.2765036 115.35229492 239.77148438 C114.50624191 240.19562119 113.6601889 240.619758 112.78849792 241.05674744 C108.51389468 243.07631349 105.3182387 243.54664899 100.60546875 243.08813477 C97.31446417 241.70808507 94.33466953 239.8826915 91.29296875 238.02563477 C89.41290597 236.91471132 87.53269071 235.80404589 85.65234375 234.69360352 C84.66556641 234.10369629 83.67878906 233.51378906 82.66210938 232.90600586 C77.48745748 229.82849324 72.26215035 226.8392729 67.04296875 223.83813477 C64.83586334 222.5635236 62.62883327 221.28878195 60.421875 220.01391602 C53.45413059 215.99541754 46.46794878 212.00966079 39.48046875 208.02563477 C28.4651832 201.74474114 17.49711088 195.38574794 6.5546875 188.97875977 C5.70052246 188.48311523 4.84635742 187.9874707 3.96630859 187.47680664 C2.47424938 186.59916106 0.99349189 185.70174429 -0.47021484 184.77758789 C-3.61615261 182.6691746 -3.61615261 182.6691746 -7.24194336 182.30883789 C-9.96967239 183.29635191 -12.38262116 184.59769357 -14.91796875 186.01000977 C-16.01012695 186.6166748 -17.10228516 187.22333984 -18.22753906 187.84838867 C-19.40836846 188.51134298 -20.58902843 189.17459913 -21.76953125 189.83813477 C-22.99181965 190.52099048 -24.21415088 191.20376955 -25.43652344 191.88647461 C-33.80799272 196.57507589 -42.09156871 201.40153149 -50.33251953 206.31616211 C-57.65113404 210.67434851 -65.04839449 214.87989014 -72.47363281 219.05322266 C-82.30395182 224.58382092 -92.0683281 230.22631628 -101.83203125 235.87329102 C-103.28996094 236.70884521 -103.28996094 236.70884521 -104.77734375 237.5612793 C-106.35249749 238.48021694 -107.91488144 239.42238062 -109.44921875 240.40795898 C-113.61529455 243.0476309 -116.49542157 243.78723933 -121.39453125 243.08813477 C-124.20986792 241.98160571 -126.73962926 240.51360877 -129.33203125 238.96313477 C-130.09128906 238.52517578 -130.85054687 238.0872168 -131.6328125 237.63598633 C-133.30852103 236.66629717 -134.98004792 235.68935599 -136.64794922 234.70629883 C-139.6084831 232.96208385 -142.58059743 231.23881304 -145.5546875 229.51782227 C-151.51385324 226.06261129 -157.4672677 222.5978484 -163.39453125 219.08813477 C-164.60515637 218.55781363 -164.60515637 218.55781363 -165.84023857 218.01677895 C-172.83631792 214.6180779 -172.83631792 214.6180779 -174.30501938 210.59268188 C-174.6287874 207.4247361 -174.63203765 204.39090971 -174.52978516 201.20776367 C-174.53124542 200.0169519 -174.53270569 198.82614014 -174.53421021 197.59924316 C-174.52844962 194.34590041 -174.47844646 191.09690146 -174.40847063 187.84442186 C-174.34580382 184.44134577 -174.3400718 181.03817708 -174.32821655 177.63461304 C-174.29717811 171.19537178 -174.21518235 164.7578355 -174.11472166 158.31934392 C-174.00280746 150.9870587 -173.9479313 143.65469045 -173.89776731 136.32176328 C-173.79334021 121.24293831 -173.61753915 106.16570731 -173.39453125 91.08813477 C-169.96359257 89.16631803 -166.53259588 87.24460491 -163.10154819 85.32298279 C-161.36844257 84.35229736 -159.63538129 83.38153273 -157.90232086 82.4107666 C-152.3807408 79.31836478 -146.85820577 76.22781089 -141.328125 73.15063477 C-130.32909702 67.0254563 -119.40893209 60.78618556 -108.55444336 54.40844727 C-101.06206409 50.0220686 -93.49567222 45.78278235 -85.89453125 41.58813477 C-76.2486575 36.26454225 -66.6938705 30.80950329 -57.19384766 25.23022461 C-49.29845773 20.59817487 -41.35473522 16.05758255 -33.36572266 11.58886719 C-29.25540962 9.2877945 -25.16660125 6.97667402 -21.16015625 4.49829102 C-20.53383301 4.11721191 -19.90750977 3.73613281 -19.26220703 3.34350586 C-17.67479377 2.37077602 -16.10030287 1.37703716 -14.52734375 0.38110352 C-9.49853711 -1.69437653 -5.13693606 -1.95620475 0 0 Z " fill="#F4692B" transform="translate(257.39453125,129.911865234375)"/>
<path d="M0 0 C3.76410993 1.50564397 7.03540064 3.03201369 10.55078125 4.984375 C11.62908203 5.5825 12.70738281 6.180625 13.81835938 6.796875 C14.98319798 7.44769288 16.14790819 8.09874061 17.3125 8.75 C17.90957764 9.08257812 18.50665527 9.41515625 19.12182617 9.7578125 C28.46569938 14.96306386 37.72135758 20.30744737 46.94116211 25.72973633 C55.46458841 30.72675861 64.0866599 35.53352698 72.74682617 40.2890625 C78.64841573 43.54041105 84.494555 46.85961185 90.27734375 50.31640625 C91.46882018 51.02367486 92.66038797 51.7307896 93.85205078 52.43774414 C96.11362873 53.78015383 98.35892503 55.14191611 100.60107422 56.51733398 C101.61572754 57.12005127 102.63038086 57.72276855 103.67578125 58.34375 C104.56177002 58.88193359 105.44775879 59.42011719 106.3605957 59.97460938 C109.73424855 61.28525057 111.53831027 60.96945454 115 60 C117.56244125 58.83854575 117.56244125 58.83854575 120.02734375 57.296875 C120.97391846 56.73444092 121.92049316 56.17200684 122.89575195 55.5925293 C123.89952881 54.98449463 124.90330566 54.37645996 125.9375 53.75 C128.07470688 52.47909896 130.21275105 51.20960507 132.3515625 49.94140625 C133.44500977 49.29059082 134.53845703 48.63977539 135.66503906 47.96923828 C141.0117804 44.81207754 146.407705 41.74390359 151.8125 38.6875 C152.79017334 38.13094727 153.76784668 37.57439453 154.77514648 37.00097656 C156.13361694 36.23285645 156.13361694 36.23285645 157.51953125 35.44921875 C158.71219604 34.77379028 158.71219604 34.77379028 159.92895508 34.0847168 C162 33 162 33 165 32 C165.33 31.34 165.66 30.68 166 30 C166 71.91 166 113.82 166 157 C114.69689337 182.65155332 114.69689337 182.65155332 108 182 C104.70899542 180.61995031 101.72920078 178.79455673 98.6875 176.9375 C96.80743722 175.82657656 94.92722196 174.71591112 93.046875 173.60546875 C92.06009766 173.01556152 91.07332031 172.4256543 90.05664062 171.81787109 C84.88198873 168.74035847 79.6566816 165.75113813 74.4375 162.75 C72.23039459 161.47538883 70.02336452 160.20064719 67.81640625 158.92578125 C60.26369367 154.56991482 52.69010919 150.25089939 45.11477661 145.93453979 C35.69497639 140.56573409 26.31789638 135.12669902 16.98779297 129.60327148 C16.08174316 129.07032471 15.17569336 128.53737793 14.2421875 127.98828125 C13.4672998 127.52977783 12.69241211 127.07127441 11.89404297 126.59887695 C7.66793716 124.26407293 3.31845159 122.15922579 -1 120 C-0.505 60.6 -0.505 60.6 0 0 Z " fill="#E03A58" transform="translate(250,191)"/>
<path d="M0 0 C2.62401776 1.30600247 5.14158642 2.72708191 7.66796875 4.21313477 C8.60898437 4.74648437 9.55 5.27983398 10.51953125 5.8293457 C13.56077182 7.5613302 16.58389721 9.322089 19.60546875 11.08813477 C21.69770125 12.29944443 23.79015005 13.51038054 25.8828125 14.72094727 C29.99545545 17.10731549 34.10023616 19.50650828 38.19921875 21.91625977 C42.31815199 24.3373337 46.45103468 26.72857755 50.60546875 29.08813477 C54.67776892 31.40116206 58.72949696 33.74373969 62.765625 36.11938477 C73.77703448 42.59547754 84.84735976 48.93739655 96.04296875 55.08813477 C96.95758881 55.59070297 96.95758881 55.59070297 97.89068604 56.10342407 C100.34239227 57.45024714 102.79433648 58.79663589 105.24655151 60.14253235 C115.40588191 65.7206082 125.52580995 71.36733519 135.60546875 77.08813477 C136.66668945 77.68883789 137.72791016 78.28954102 138.82128906 78.90844727 C141.94477112 80.68411895 145.05784506 82.4766888 148.16796875 84.27563477 C149.59774048 85.08713989 149.59774048 85.08713989 151.05639648 85.91503906 C151.91950439 86.41946533 152.7826123 86.9238916 153.671875 87.44360352 C154.43443604 87.88341553 155.19699707 88.32322754 155.98266602 88.77636719 C156.51819092 89.20925049 157.05371582 89.64213379 157.60546875 90.08813477 C157.60546875 91.07813477 157.60546875 92.06813477 157.60546875 93.08813477 C156.01432292 94.00610352 154.42317708 94.92407227 152.83203125 95.84204102 C151.79143555 96.44274414 150.75083984 97.04344727 149.67871094 97.66235352 C147.36027092 98.99918271 145.04085576 100.33412508 142.71972656 101.66625977 C137.15497045 104.86341458 131.60185625 108.07471493 126.10006714 111.37937927 C124.32674206 112.44364802 122.54954013 113.50112088 120.77099609 114.55664062 C118.52632869 115.89172836 116.28935767 117.23985778 114.06103516 118.60205078 C113.03929199 119.205896 112.01754883 119.80974121 110.96484375 120.43188477 C110.07249023 120.97006836 109.18013672 121.50825195 108.26074219 122.06274414 C104.88176938 123.36760675 103.06977395 123.05678491 99.60546875 122.08813477 C97.1496582 120.92749023 97.1496582 120.92749023 94.71875 119.45532227 C93.79425049 118.90408691 92.86975098 118.35285156 91.91723633 117.78491211 C90.43259888 116.88313232 90.43259888 116.88313232 88.91796875 115.96313477 C86.76322568 114.67935209 84.60691532 113.39819716 82.44921875 112.11938477 C81.32773437 111.45422852 80.20625 110.78907227 79.05078125 110.10375977 C73.39317009 106.7938648 67.65754415 103.62808893 61.91796875 100.46313477 C51.40501158 94.65306888 40.95046412 88.7526422 30.53564453 82.76879883 C27.11242943 80.80534167 23.68542433 78.84859055 20.2578125 76.89282227 C18.97778248 76.16227341 17.69775318 75.43172328 16.41772461 74.70117188 C14.52730169 73.62229339 12.63682091 72.54351713 10.74612427 71.46511841 C8.99060892 70.46367529 7.2355312 69.46146514 5.48046875 68.45922852 C3.96066406 67.59189087 3.96066406 67.59189087 2.41015625 66.70703125 C-0.39453125 65.08813477 -0.39453125 65.08813477 -2.94921875 63.31494141 C-5.311346 61.87488795 -5.311346 61.87488795 -7.88745117 62.23388672 C-10.6318362 63.16899269 -12.98447333 64.32600063 -15.5078125 65.75610352 C-16.49612061 66.31249512 -17.48442871 66.86888672 -18.50268555 67.44213867 C-20.08883667 68.34971924 -20.08883667 68.34971924 -21.70703125 69.27563477 C-22.81280518 69.90131348 -23.9185791 70.52699219 -25.05786133 71.17163086 C-33.60589828 76.02379357 -42.08867559 80.98629996 -50.5637207 85.96459961 C-59.05837197 90.93629431 -67.6749422 95.66070099 -76.33203125 100.34204102 C-83.40399875 104.16692103 -90.40522374 108.11472355 -97.39453125 112.08813477 C-98.0395459 112.45455078 -98.68456055 112.8209668 -99.34912109 113.19848633 C-106.78325575 117.29804328 -106.78325575 117.29804328 -113.9140625 121.87719727 C-117.22832324 123.49518282 -118.83449653 122.94267282 -122.39453125 122.08813477 C-125.296875 120.7121582 -125.296875 120.7121582 -128.33203125 118.94750977 C-129.46479492 118.29459961 -130.59755859 117.64168945 -131.76464844 116.96899414 C-132.97475957 116.25896359 -134.18471746 115.54867183 -135.39453125 114.83813477 C-136.63792845 114.11671089 -137.88174799 113.39601446 -139.12597656 112.67602539 C-142.8900451 110.49342772 -146.64322401 108.29257323 -150.39453125 106.08813477 C-151.54751024 105.41167553 -152.70050454 104.73524241 -153.85351562 104.05883789 C-160.04571424 100.42179816 -166.22683648 96.76657393 -172.39453125 93.08813477 C-171.23223368 89.60124205 -170.73015095 89.41249979 -167.65234375 87.69750977 C-166.84756592 87.24327637 -166.04278809 86.78904297 -165.21362305 86.32104492 C-164.32457275 85.83168457 -163.43552246 85.34232422 -162.51953125 84.83813477 C-161.58987549 84.31654785 -160.66021973 83.79496094 -159.70239258 83.25756836 C-156.60554834 81.52382468 -153.5009523 79.80465509 -150.39453125 78.08813477 C-147.09011021 76.25813122 -143.78596391 74.42763272 -140.48193359 72.59692383 C-138.19497609 71.3297858 -135.90753245 70.0635248 -133.61962891 68.7980957 C-125.15808144 64.1050564 -116.79322877 59.26415557 -108.45385742 54.3581543 C-100.9964303 49.98573346 -93.46330553 45.76441861 -85.89453125 41.58813477 C-76.24862812 36.26459741 -66.69386893 30.80950237 -57.19384766 25.23022461 C-49.29845773 20.59817487 -41.35473522 16.05758255 -33.36572266 11.58886719 C-29.25540962 9.2877945 -25.16660125 6.97667402 -21.16015625 4.49829102 C-20.53383301 4.11721191 -19.90750977 3.73613281 -19.26220703 3.34350586 C-17.67479377 2.37077602 -16.10030287 1.37703716 -14.52734375 0.38110352 C-9.49853711 -1.69437653 -5.13693606 -1.95620475 0 0 Z " fill="#FCAD46" transform="translate(257.39453125,129.911865234375)"/>
<path d="M0 0 C0.33 0 0.66 0 1 0 C1 41.91 1 83.82 1 127 C-47 151 -47 151 -54 152 C-54 112.4 -54 72.8 -54 32 C-46.41 27.71 -38.82 23.42 -31 19 C-26.61736759 16.46957937 -22.23961435 13.93565447 -17.875 11.375 C-16.87597656 10.79105469 -15.87695312 10.20710937 -14.84765625 9.60546875 C-9.55015269 6.51540004 -9.55015269 6.51540004 -4.31689453 3.31884766 C-2 2 -2 2 0 2 C0 1.34 0 0.68 0 0 Z " fill="#F3652C" transform="translate(415,221)"/>
<path d="M0 0 C0.61507542 0.41252203 1.23015083 0.82504406 1.8638649 1.25006676 C3.07645288 2.06134246 3.07645288 2.06134246 4.3135376 2.88900757 C5.11423801 3.4252796 5.91493843 3.96155163 6.7399025 4.51407433 C9.30562201 6.20093451 11.92186597 7.74188616 14.609375 9.2265625 C15.61355469 9.78472656 16.61773437 10.34289062 17.65234375 10.91796875 C18.67457031 11.48128906 19.69679688 12.04460937 20.75 12.625 C32.22918249 18.97873509 43.60552981 25.48887418 55 32 C55 71.6 55 111.2 55 152 C50.40308175 151.08061635 48.01252797 150.084697 44.0546875 147.7890625 C43.49109024 147.46478271 42.92749298 147.14050293 42.34681702 146.80639648 C40.51894913 145.75256518 38.6969886 144.68895804 36.875 143.625 C35.61697603 142.89700436 34.3585914 142.16963163 33.09985352 141.44287109 C30.58238935 139.98788264 28.0672585 138.52898933 25.55419922 137.06640625 C22.38621821 135.22298508 19.21199936 133.39061641 16.03515625 131.5625 C9.49762112 127.7965608 9.49762112 127.7965608 6.46484375 126.0390625 C5.862771 125.69053223 5.26069824 125.34200195 4.64038086 124.98291016 C3.06305821 124.03778425 1.52997958 123.01998638 0 122 C-0.36914349 119.84858513 -0.36914349 119.84858513 -0.36076355 117.12789917 C-0.36488754 116.09862305 -0.36901154 115.06934692 -0.3732605 114.00888062 C-0.36247467 112.87528107 -0.35168884 111.74168152 -0.34057617 110.57373047 C-0.34101425 109.38350281 -0.34145233 108.19327515 -0.34190369 106.96697998 C-0.34016867 103.69845455 -0.32509764 100.43031177 -0.30418181 97.16186285 C-0.28545959 93.74790953 -0.2836681 90.33394913 -0.28010559 86.91995239 C-0.27077197 80.45299051 -0.24614053 73.98618033 -0.21605712 67.51928532 C-0.18255394 60.15785265 -0.16603741 52.79641283 -0.15097082 45.43492293 C-0.119592 30.28986402 -0.06680608 15.14494716 0 0 Z " fill="#DF3A58" transform="translate(84,221)"/>
</svg>
