<svg xmlns="http://www.w3.org/2000/svg" width="2000" height="2000" viewBox="0 0 2000 2000" version="1.1"><path d="M 459.667 293.667 C 459.300 294.033, 459 365.583, 459 452.667 L 459 611 841 611 L 1223 611 1223 826 L 1223 1041 841 1041 L 459 1041 459 1214.775 L 459 1388.551 617.750 1547.025 L 776.500 1705.500 776.753 1532.250 L 777.006 1359 1000.003 1359 L 1223 1359 1223 1200 L 1223 1041 1382 1041 L 1541 1041 1540.993 833.250 L 1540.986 625.500 1512.686 597 C 1486.584 570.714, 1362.909 445.455, 1289.541 370.998 C 1272.469 353.672, 1248.190 329.034, 1235.589 316.248 L 1212.677 293 836.505 293 C 629.611 293, 460.033 293.300, 459.667 293.667" stroke="none" fill="#db3b3b" fill-rule="evenodd"/><path d="M -0 1000 L -0 2000.001 1000.250 1999.750 L 2000.500 1999.500 2000.750 999.750 L 2001.001 0 1000.500 0 L 0 0 -0 1000 M 0.498 1000.500 C 0.498 1550.500, 0.611 1775.650, 0.750 1500.833 C 0.889 1226.016, 0.889 776.016, 0.750 500.833 C 0.611 225.650, 0.498 450.500, 0.498 1000.500 M 459.667 293.667 C 459.300 294.033, 459 365.583, 459 452.667 L 459 611 841 611 L 1223 611 1223 826 L 1223 1041 841 1041 L 459 1041 459 1214.775 L 459 1388.551 617.750 1547.025 L 776.500 1705.500 776.753 1532.250 L 777.006 1359 1000.003 1359 L 1223 1359 1223 1200 L 1223 1041 1382 1041 L 1541 1041 1540.993 833.250 L 1540.986 625.500 1512.686 597 C 1486.584 570.714, 1362.909 445.455, 1289.541 370.998 C 1272.469 353.672, 1248.190 329.034, 1235.589 316.248 L 1212.677 293 836.505 293 C 629.611 293, 460.033 293.300, 459.667 293.667" stroke="none" fill="#040404" fill-rule="evenodd"/></svg>